<?xml version="1.0" encoding="utf-8"?>
<!-- Generator: Adobe Illustrator 23.0.3, SVG Export Plug-In . SVG Version: 6.00 Build 0)  -->
<svg version="1.1" id="Calque_1" xmlns="http://www.w3.org/2000/svg" xmlns:xlink="http://www.w3.org/1999/xlink" x="0px" y="0px"
	 viewBox="0 0 560.4 331.2" style="enable-background:new 0 0 560.4 331.2;" xml:space="preserve">
<style type="text/css">
	.st0{fill:none;stroke:#FF4500;stroke-width:6.4842;stroke-linecap:round;stroke-linejoin:round;}
</style>
<title>digital-3</title>
<g id="Calque_4">
	<path class="st0" d="M62.7,181.3c6.5-20.3,63.4-106,116.5-133.6c3.2-2,7.6-6,11.2-4.3c-5.6,9.8-11.4,18.8-16.7,29.1
		c-9.7,18.8-20.2,36.7-31.3,53.6c-13.1,20-25.2,39.5-34,65.3c-3.5,10.5-9.2,25.2-8.8,38c5.5,2.2,13.4-7.4,17.4-12.1
		c6.1-7.7,11.9-15.7,17.6-24.1c7.5-10.9,15.4-21,23.7-30.4c27.9-32.9,58-60.4,88.3-86.5c-0.7,4.3-2.8,7.7-4.4,11.1
		c-11,22.5-23.9,42.5-36.3,62.7c-15.4,24.9-29.5,50.3-40.8,80.7c-4.9,11.9-9,24.7-12.1,38.1c-2.8,6.2-2.8,11.6-0.1,16.4
		c15.9-11.2,29.3-34.6,42.1-52.7c19.3-27.3,37.2-57.2,56.8-83.8c15.4-20.9,32.3-39.1,49.1-56.6c11.2-11.7,22.8-24.6,35-33.8
		c-18.8,27.6-38.2,55-55.2,85.6c-17.2,30.9-32.9,64.2-47.8,98.1c-4.9,11-12.9,24.4-14.4,37.9c37.4-18.6,58.9-78.7,86.5-119.1
		l25.5-35c14-16.8,28.9-31.4,44.7-43.7c11.7-9.8,23.3-19.7,34.8-29.6c1.3,4.6-17.5,32.4-14.9,28c-12.4,20.4-24.9,40.8-36.6,62.4
		c-18.5,34-35.3,70.8-51.3,107.8c-7.9,18.1-16.8,36.1-23.5,55.4c16.8-18.5,32.1-40.9,46.4-64.1c20.1-32.3,39.5-65.1,61.2-94.7
		c17.2-23.4,35.1-46.4,55.1-63.1c3.7-3.1,20.6-20.1,24.2-16.4c-5.2,6.5-10.1,13.6-14.7,21.1c-13.1,21.1-26.3,43.3-37.4,67.4
		c-5.8,12.6-47.2,107.2-43,112C431,212.9,452,152.9,489.2,114.4"/>
</g>
</svg>
