<svg xmlns="http://www.w3.org/2000/svg" viewBox="0 0 191.99 56.33"><defs><style>.cls-1{fill:none;}</style></defs><title>mobius-logo</title><g id="Layer_2" data-name="Layer 2"><g id="Layer_1-2" data-name="Layer 1"><path d="M0,56.33V28.76a14.59,14.59,0,0,1,1.38-5.52Q4.14,17.72,11,17.73a9.9,9.9,0,0,1,8.28,4.13,9.87,9.87,0,0,1,8.27-4.13q6.9,0,9.65,5.51a14.59,14.59,0,0,1,1.38,5.52V56.33H33.1V28.76q-.39-5.52-5.52-5.52t-5.52,5.52V56.33H16.55V28.76q-.39-5.52-5.52-5.52T5.52,28.76V56.33Z"/><path d="M50.06,28.76a14.59,14.59,0,0,1,1.38-5.52q2.76-5.52,9.66-5.51t9.65,5.51a14.59,14.59,0,0,1,1.38,5.52V45.3a14.64,14.64,0,0,1-1.38,5.52Q68,56.33,61.1,56.33t-9.66-5.51a14.64,14.64,0,0,1-1.38-5.52Zm5.52,0V45.3q.39,5.52,5.52,5.52t5.51-5.52V28.76q-.37-5.52-5.51-5.52T55.58,28.76Z"/><path d="M84.86,56.33V17.73h8.27a14.35,14.35,0,0,1,5.51,1.37q5.52,2.76,5.52,9.66,0,5.11-2.76,6.89,5.52,2,5.52,9.65,0,6.9-5.52,9.65a14.18,14.18,0,0,1-5.51,1.38Zm5.51-22.06h2.76q5.5-.39,5.51-5.51t-5.51-5.52H90.37Zm0,16.55h5.52q5.51-.39,5.51-5.52c0-3.42-1.84-5.25-5.51-5.52H90.37Z"/><path d="M175.45,44.88q.38,5.52,5.52,5.52t5.51-5.52q0-5.13-5.51-5.52-6.9,0-9.66-5.51a14.59,14.59,0,0,1-1.38-5.52,14.54,14.54,0,0,1,1.38-5.51q2.76-5.52,9.66-5.52t9.65,5.52A14.35,14.35,0,0,1,192,28.33h-5.51q0-5.13-5.51-5.51-5.52.38-5.52,5.51T181,33.85q6.89,0,9.65,5.51A14.45,14.45,0,0,1,192,44.88a14.45,14.45,0,0,1-1.37,5.52q-2.76,5.51-9.65,5.51t-9.66-5.51a14.64,14.64,0,0,1-1.38-5.52Z"/><path d="M123.42,28.78a16.94,16.94,0,0,1,.33-2.47,13.06,13.06,0,0,1,1-3A9.62,9.62,0,0,1,131.24,18a20.48,20.48,0,0,1,2.65-.28l-4.48,0H129q-6.9,0-9.65,5.51a14.43,14.43,0,0,0-1.36,5.3l0,27.79h5.47Z"/><path d="M159.83,18.23l0,27.24a14,14,0,0,1-1.3,5.12c-1.77,3.53-4.78,5.24-9.21,5.24H149A9.68,9.68,0,0,0,154,51a13.55,13.55,0,0,0,1-3.15,19.32,19.32,0,0,0,.35-2.57v-27h4.46m.5-.5h-5.46V45.28a18.62,18.62,0,0,1-.34,2.47,13.06,13.06,0,0,1-1,3A9.6,9.6,0,0,1,147,56a20.48,20.48,0,0,1-2.65.28l4.48,0h.43q6.9,0,9.65-5.51a14.24,14.24,0,0,0,1.36-5.3l0-27.79Z"/><path class="cls-1" d="M139.12,44.86v0Z"/><path class="cls-1" d="M139,27.9h0Z"/><path d="M139,27.9c0,.28.08.57.1.88v0C139.11,28.47,139.06,28.19,139,27.9Z"/><path d="M139,27.89a5,5,0,0,0-2.5-4h0A5,5,0,0,1,139,27.89Z"/><path d="M149.62,17.73V45.3c-.17,2.51-1.05,4.15-2.62,4.94a5.74,5.74,0,0,1-2.63.58c-3.25,0-5-1.83-5.25-5.49V28.78c0-.31-.06-.6-.1-.88h0a5,5,0,0,0-2.52-4h0a6.25,6.25,0,0,0-5.28,0c1.57.81,2.45,2.43,2.62,4.92V45.3a15.24,15.24,0,0,0,1.31,5.52q2.63,5.51,9.2,5.51a12.87,12.87,0,0,0,2.63-.27,9,9,0,0,0,6.56-5.24,14.91,14.91,0,0,0,1.29-5.32,1.36,1.36,0,0,0,0-.2V17.73Z"/><path d="M133.91,18.26c4.18,0,7,1.71,8.7,5.23a14.32,14.32,0,0,1,1.19,4.59l0,.26c0,.16,0,.31,0,.44V43.65c0,1.68,0,1.68,0,1.7a6.43,6.43,0,0,0,2,4.78,6.18,6.18,0,0,1-1.54.19c-2.88,0-4.42-1.56-4.72-4.71l0-16.86c0-.29-.06-.55-.1-.81v-.13a8.15,8.15,0,0,0-.59-2.06l0-.09a4.64,4.64,0,0,0-2.14-2.25,6.71,6.71,0,0,0-5.74,0c-1.72.89-2.68,2.68-2.86,5.36V55.83h-4.23v-27a17.35,17.35,0,0,1,.32-2.41,12.68,12.68,0,0,1,.94-2.92,9.11,9.11,0,0,1,6.2-5,19.85,19.85,0,0,1,2.53-.26m0-.5a20.48,20.48,0,0,0-2.65.28,9.62,9.62,0,0,0-6.51,5.23,13.06,13.06,0,0,0-1,3,16.94,16.94,0,0,0-.33,2.47V56.33h5.23V28.78c.17-2.49,1-4.11,2.59-4.92a6.25,6.25,0,0,1,5.28,0,4.26,4.26,0,0,1,1.92,2l0,.08a7.43,7.43,0,0,1,.54,1.93h0c0,.29.09.57.11.88l0,16.83c.33,3.46,2.06,5.21,5.22,5.21h0a5.74,5.74,0,0,0,2.63-.58c-1.57-.79-2.46-2.42-2.63-4.92V28.78c0-.26-.05-.5-.07-.75a14.51,14.51,0,0,0-1.24-4.76q-2.61-5.5-9.17-5.51Z"/><circle cx="123.67" cy="5.33" r="5.33"/></g></g></svg>