<svg xmlns="http://www.w3.org/2000/svg" viewBox="0 0 10000 250" width="10000" height="250"><path d="M154.35 126.63c0 29.35 19.24 50.54 45.65 50.54s45.65-21.19 45.65-50.54V41.85h32.61v84.78c0 47-33.26 81.52-78.26 81.52-45 0-78.26-34.56-78.26-81.52V41.85h32.61zM554.35 126.63c0 29.35 19.24 50.54 45.65 50.54s45.65-21.19 45.65-50.54V41.85h32.61v84.78c0 47-33.26 81.52-78.26 81.52-45 0-78.26-34.56-78.26-81.52V41.85h32.61zM954.35 126.63c0 29.35 19.24 50.54 45.65 50.54s45.65-21.19 45.65-50.54V41.85h32.61v84.78c0 47-33.26 81.52-78.26 81.52-45 0-78.26-34.56-78.26-81.52V41.85h32.61zM1347.83 43.48L1448.91 156V43.48h32.61v163h-29.35L1351.09 94v112.5h-32.61v-163zM1747.83 43.48L1848.91 156V43.48h32.61v163h-29.35L1751.09 94v112.5h-32.61v-163zM2147.83 43.48L2248.91 156V43.48h32.61v163h-29.35L2151.09 94v112.5h-32.61v-163zM2554.35 157.61c0 13.69 18.26 22.82 45.65 22.82 29.67 0 45.65-8.47 45.65-23.8 0-13-14.35-18.59-47-18.59-51.48-.04-73.65-13.69-73.65-46.63 0-33.26 26.09-51.19 75-51.19 45 0 75 20.87 75 52.17h-32.61c0-13.69-17-22.82-42.39-22.82-27.72 0-42.39 7.5-42.39 21.84 0 12.4 13 17.29 44 17.29 53.8 0 76.63 14.67 76.63 47.93 0 34.57-27.39 53.15-78.26 53.15-47 0-78.26-20.87-78.26-52.17zM2954.35 157.61c0 13.69 18.26 22.82 45.65 22.82 29.67 0 45.65-8.47 45.65-23.8 0-13-14.35-18.59-47-18.59-51.48-.04-73.65-13.69-73.65-46.63 0-33.26 26.09-51.19 75-51.19 45 0 75 20.87 75 52.17h-32.61c0-13.69-17-22.82-42.39-22.82-27.72 0-42.39 7.5-42.39 21.84 0 12.4 13 17.29 44 17.29 53.8 0 76.63 14.67 76.63 47.93 0 34.57-27.39 53.15-78.26 53.15-47 0-78.26-20.87-78.26-52.17zM3354.35 157.61c0 13.69 18.26 22.82 45.65 22.82 29.67 0 45.65-8.47 45.65-23.8 0-13-14.35-18.59-47-18.59-51.48-.04-73.65-13.69-73.65-46.63 0-33.26 26.09-51.19 75-51.19 45 0 75 20.87 75 52.17h-32.61c0-13.69-17-22.82-42.39-22.82-27.72 0-42.39 7.5-42.39 21.84 0 12.4 13 17.29 44 17.29 53.8 0 76.63 14.67 76.63 47.93 0 34.57-27.39 53.15-78.26 53.15-47 0-78.26-20.87-78.26-52.17zM3834.24 139.67h-84.78v66.85h-32.61v-163h117.39c29.34 0 48.91 19.56 48.91 48.91 0 28-19.57 47.24-48.91 47.24zm16.3-50.54c0-9.78-6.52-16.3-16.3-16.3h-84.78v37.5h84.78c9.78 0 16.3-6.53 16.3-16.31zM4234.24 139.67h-84.78v66.85h-32.61v-163h117.39c29.34 0 48.91 19.56 48.91 48.91 0 28-19.57 47.24-48.91 47.24zm16.3-50.54c0-9.78-6.52-16.3-16.3-16.3h-84.78v37.5h84.78c9.78 0 16.3-6.53 16.3-16.31zM4634.24 139.67h-84.78v66.85h-32.61v-163h117.39c29.34 0 48.91 19.56 48.91 48.91 0 28-19.57 47.24-48.91 47.24zm16.3-50.54c0-9.78-6.52-16.3-16.3-16.3h-84.78v37.5h84.78c9.78 0 16.3-6.53 16.3-16.31zM4967.39 43.48v133.69h97.83v29.35h-130.44v-163zM5367.39 43.48v133.69h97.83v29.35h-130.44v-163zM5767.39 43.48v133.69h97.83v29.35h-130.44v-163zM6256.09 206.52l-13.37-32.61h-86.09l-13.37 32.61h-34.56l66.85-163h48.91l66.84 163zm-54.78-133.69H6198l-29.3 71.73h62zM6656.09 206.52l-13.37-32.61h-86.09l-13.37 32.61h-34.56l66.85-163h48.91l66.84 163zm-54.78-133.69H6598l-29.3 71.73h62zM7056.09 206.52l-13.37-32.61h-86.09l-13.37 32.61h-34.56l66.85-163h48.91l66.84 163zm-54.78-133.69H6998l-29.3 71.73h62zM7354.35 157.61c0 13.69 18.26 22.82 45.65 22.82 29.67 0 45.65-8.47 45.65-23.8 0-13-14.35-18.59-47-18.59-51.48-.04-73.65-13.69-73.65-46.63 0-33.26 26.09-51.19 75-51.19 45 0 75 20.87 75 52.17h-32.61c0-13.69-17-22.82-42.39-22.82-27.72 0-42.39 7.5-42.39 21.84 0 12.4 13 17.29 44 17.29 53.8 0 76.63 14.67 76.63 47.93 0 34.57-27.39 53.15-78.26 53.15-47 0-78.26-20.87-78.26-52.17zM7754.35 157.61c0 13.69 18.26 22.82 45.65 22.82 29.67 0 45.65-8.47 45.65-23.8 0-13-14.35-18.59-47-18.59-51.48-.04-73.65-13.69-73.65-46.63 0-33.26 26.09-51.19 75-51.19 45 0 75 20.87 75 52.17h-32.61c0-13.69-17-22.82-42.39-22.82-27.72 0-42.39 7.5-42.39 21.84 0 12.4 13 17.29 44 17.29 53.8 0 76.63 14.67 76.63 47.93 0 34.57-27.39 53.15-78.26 53.15-47 0-78.26-20.87-78.26-52.17zM8154.35 157.61c0 13.69 18.26 22.82 45.65 22.82 29.67 0 45.65-8.47 45.65-23.8 0-13-14.35-18.59-47-18.59-51.48-.04-73.65-13.69-73.65-46.63 0-33.26 26.09-51.19 75-51.19 45 0 75 20.87 75 52.17h-32.61c0-13.69-17-22.82-42.39-22.82-27.72 0-42.39 7.5-42.39 21.84 0 12.4 13 17.29 44 17.29 53.8 0 76.63 14.67 76.63 47.93 0 34.57-27.39 53.15-78.26 53.15-47 0-78.26-20.87-78.26-52.17zM8551.09 43.48v66.85h97.82V43.48h32.61v163h-32.61v-66.81h-97.82v66.85h-32.61v-163zM8951.09 43.48v66.85h97.82V43.48h32.61v163h-32.61v-66.81h-97.82v66.85h-32.61v-163zM9351.09 43.48v66.85h97.82V43.48h32.61v163h-32.61v-66.81h-97.82v66.85h-32.61v-163zM9751.09 43.48v66.85h97.82V43.48h32.61v163h-32.61v-66.81h-97.82v66.85h-32.61v-163z" fill="#1008ab"/></svg>